<svg xmlns="http://www.w3.org/2000/svg" viewBox="0 0 305.56 82.06"><defs><style>.cls-1{fill:#cdaa50;}</style></defs><title>CM_Basic_Gold_Rgb</title><g id="Layer_1" data-name="Layer 1"><path class="cls-1" d="M97.75,53.5l-.5,0q-.13-1.21-1-1.21H94.4v2.12h1q.49,0,.56-1h.49l-.12,2.66h-.47q-.09-1-.51-1H94.4v1.79q0,.37.94.37v.46H92.46v-.46q.71,0,.71-.37V52.54c0-.25-.24-.37-.71-.37V51.7h5.29Z"/><path class="cls-1" d="M110.67,52.17c-.47,0-.71.12-.71.37v4.28q0,.37.71.37v.46H108v-.46q.72,0,.72-.37V52.54c0-.25-.24-.37-.72-.37V51.7h2.66Z"/><path class="cls-1" d="M127.53,52.17c-.47,0-.71.12-.71.37v5.1h-1.48l-3-4.79v4q0,.37.71.37v.46h-2.09v-.46q.71,0,.71-.37V52.54c0-.25-.24-.37-.71-.37V51.7h2.14l3.06,4.91V52.54c0-.25-.24-.37-.71-.37V51.7h2.09Z"/><path class="cls-1" d="M140.46,52.17q-.89,0-.89.37V57h1.57a1.65,1.65,0,0,0,.54-.08,1,1,0,0,0,.42-.28,1.45,1.45,0,0,0,.28-.52,3.58,3.58,0,0,0,.15-.82l.53.06-.19,2.28h-5.23v-.46q.71,0,.71-.37V52.54c0-.25-.24-.37-.71-.37V51.7h2.82Z"/><path class="cls-1" d="M159,56.94q.08.24.66.24v.46h-2.93v-.46h.7q.23,0,.23-.15a.32.32,0,0,0,0-.09l-.32-.86H154.9l-.3.8a.29.29,0,0,0,0,.1c0,.14.12.21.35.21h.5v.46h-2.18v-.47a1.59,1.59,0,0,0,.5-.06.29.29,0,0,0,.2-.17l2-5.25h1.16Zm-3.93-1.46h2l-1-2.82Z"/><path class="cls-1" d="M176.47,52.17c-.47,0-.71.12-.71.37v5.1h-1.48l-3-4.79v4q0,.37.71.37v.46h-2.09v-.46q.71,0,.71-.37V52.54c0-.25-.24-.37-.71-.37V51.7H172l3.06,4.91V52.54c0-.25-.24-.37-.71-.37V51.7h2.09Z"/><path class="cls-1" d="M189.69,51.71a6.71,6.71,0,0,1,1.28.11,2.06,2.06,0,0,1,.92.41,1.81,1.81,0,0,1,.56.86,4.63,4.63,0,0,1,.18,1.44,5.18,5.18,0,0,1-.18,1.5,2.19,2.19,0,0,1-.56,1,2.11,2.11,0,0,1-.92.51,4.88,4.88,0,0,1-1.28.15h-3.12v-.46q.71,0,.71-.37V52.54c0-.25-.24-.37-.71-.37V51.7Zm-1.18.62V57h1.31a1.54,1.54,0,0,0,.75-.16,1.23,1.23,0,0,0,.48-.48,2.27,2.27,0,0,0,.25-.78,7,7,0,0,0,.07-1.06,6.11,6.11,0,0,0-.07-1,1.71,1.71,0,0,0-.25-.68,1.06,1.06,0,0,0-.48-.39,2,2,0,0,0-.75-.12Z"/><path class="cls-1" d="M32.48,57.7h-11V56h4.62V36.76H21.45V35.05h6.19l.22,2.69a6.42,6.42,0,0,1,3.34-2.63v1.77c-1.93.89-3.16,2.79-3.16,5.71V56h4.44ZM39,47.56c-4.48-.68-7.06-3.58-7.06-8.19V32.51c0-5.29,3.37-8.34,9.11-8.34,3.31,0,5.83,1.16,7.17,3.23l.27-2.79h1.57v7.18h-2V31.7c0-3.59-2.6-5.83-7-5.83-4.58,0-7.23,2.42-7.23,6.5v7.09A6,6,0,0,0,39,45.81Zm11.06-7.43c0,4.28-2.83,7.09-7.6,7.52V45.93c3.58-.42,5.63-2.57,5.63-5.66v-.18h2ZM59.93,57.7H53.38V42.23c0-4.17-2.11-5.92-5.65-5.92s-6,2.1-6,6.28V56h4.44v1.7H39.75V42.23c0-3.93-1.91-5.71-5.09-5.9V34.61c3.2.09,5.44,1.31,6.43,3.89,1.21-2.55,3.68-3.9,6.86-3.9,4.71,0,7.4,2.38,7.4,7.67V56h4.58Z"/><path class="cls-1" d="M106.9,39.61a9.93,9.93,0,0,1-9.18,5.72,10.34,10.34,0,1,1,9.18-14.85h-2.4a8,8,0,0,0-6.8-3.86A8.14,8.14,0,0,0,89.52,35a8.13,8.13,0,0,0,15,4.64Z"/><path class="cls-1" d="M124.91,45h-2V42a6.44,6.44,0,0,1-5.94,3.4,7.39,7.39,0,0,1-7.53-7.67A7.41,7.41,0,0,1,117,30.05a6.38,6.38,0,0,1,5.94,3.46V30.46h2Zm-13.5-7.23a5.67,5.67,0,0,0,5.83,5.78A5.43,5.43,0,0,0,122.48,40a5.55,5.55,0,0,0,.49-2.29,5.18,5.18,0,0,0-.46-2.32,5.6,5.6,0,0,0-5.32-3.48,5.69,5.69,0,0,0-5.78,5.83Z"/><path class="cls-1" d="M129.34,30.46h1.89v2.29a5.2,5.2,0,0,1,4.59-2.7,5.12,5.12,0,0,1,4,1.65,7.58,7.58,0,0,1,.94,1.51,6.51,6.51,0,0,1,1.05-1.54,5.46,5.46,0,0,1,4-1.62,5.35,5.35,0,0,1,3.91,1.46c1.27,1.27,1.65,2.83,1.65,5.4V45h-2V37a5.7,5.7,0,0,0-1.08-3.86,3.43,3.43,0,0,0-2.89-1.21,3.8,3.8,0,0,0-3.19,1.51,5.13,5.13,0,0,0-.86,3.48V45h-2V36.91a5.54,5.54,0,0,0-.76-3.46,3.75,3.75,0,0,0-3.19-1.54,3.58,3.58,0,0,0-3.08,1.48,5.63,5.63,0,0,0-1,3.48V45h-2Z"/><path class="cls-1" d="M156.59,38.29a5.53,5.53,0,0,0,5.67,5.37,5.37,5.37,0,0,0,5-3h2.08a7.69,7.69,0,0,1-2.94,3.54,7.6,7.6,0,0,1-4.13,1.19,7.67,7.67,0,0,1,0-15.33,7.44,7.44,0,0,1,7.58,8.23Zm11.26-1.59a5.66,5.66,0,0,0-11.23,0Z"/><path class="cls-1" d="M173.19,30.46h1.89v2.38a4.94,4.94,0,0,1,4.64-2.78v2h-.19c-2.81,0-4.37,1.75-4.37,5V45h-2Z"/><path class="cls-1" d="M195.87,45h-2V42a6.44,6.44,0,0,1-5.94,3.4,7.39,7.39,0,0,1-7.53-7.67,7.41,7.41,0,0,1,7.53-7.67,6.38,6.38,0,0,1,5.94,3.46V30.46h2Zm-13.5-7.23a5.67,5.67,0,0,0,5.83,5.78A5.43,5.43,0,0,0,193.44,40a5.55,5.55,0,0,0,.49-2.29,5.18,5.18,0,0,0-.46-2.32,5.6,5.6,0,0,0-5.32-3.48,5.69,5.69,0,0,0-5.78,5.83Z"/><path class="cls-1" d="M200.3,30.46h1.89v2.29a5.2,5.2,0,0,1,4.59-2.7,5.12,5.12,0,0,1,4,1.65,7.58,7.58,0,0,1,.94,1.51,6.51,6.51,0,0,1,1.05-1.54,5.46,5.46,0,0,1,4-1.62,5.35,5.35,0,0,1,3.91,1.46c1.27,1.27,1.65,2.83,1.65,5.4V45h-2V37a5.7,5.7,0,0,0-1.08-3.86,3.43,3.43,0,0,0-2.89-1.21,3.8,3.8,0,0,0-3.19,1.51,5.13,5.13,0,0,0-.86,3.48V45h-2V36.91a5.54,5.54,0,0,0-.76-3.46,3.75,3.75,0,0,0-3.19-1.54,3.58,3.58,0,0,0-3.08,1.48,5.63,5.63,0,0,0-1,3.48V45h-2Z"/><path class="cls-1" d="M241.23,45h-2V42a6.44,6.44,0,0,1-5.94,3.4,7.39,7.39,0,0,1-7.53-7.67,7.41,7.41,0,0,1,7.53-7.67,6.38,6.38,0,0,1,5.94,3.46V30.46h2Zm-13.5-7.23a5.67,5.67,0,0,0,5.83,5.78A5.43,5.43,0,0,0,238.8,40a5.55,5.55,0,0,0,.49-2.29,5.18,5.18,0,0,0-.46-2.32,5.6,5.6,0,0,0-5.32-3.48,5.69,5.69,0,0,0-5.78,5.83Z"/><path class="cls-1" d="M245.71,25h2V36.42l6.53-6h2.46l-7,6.37L257,45h-2.35l-7-7.72V45h-2Z"/><path class="cls-1" d="M259.81,38.29a5.53,5.53,0,0,0,5.67,5.37,5.37,5.37,0,0,0,5-3h2.08a7.69,7.69,0,0,1-2.94,3.54,7.6,7.6,0,0,1-4.13,1.19,7.67,7.67,0,0,1,0-15.33A7.44,7.44,0,0,1,273,38.29Zm11.26-1.59a5.66,5.66,0,0,0-11.23,0Z"/><path class="cls-1" d="M276.41,30.46h1.89v2.38a4.94,4.94,0,0,1,4.64-2.78v2h-.19c-2.81,0-4.37,1.75-4.37,5V45h-2Z"/><path class="cls-1" d="M292.18,34.1a2.27,2.27,0,0,0-2.48-2.4A2.3,2.3,0,0,0,287.18,34c.05,1.38,1.11,1.94,2.86,2.46,2.08.57,4.4,1.16,4.51,4.26a4.52,4.52,0,0,1-4.8,4.62c-2.35,0-4.94-1.49-5-4.54h2a2.87,2.87,0,0,0,3,2.89A2.69,2.69,0,0,0,292.58,41c-.05-1.65-1.13-2.32-3.64-3.05-2.08-.62-3.7-1.46-3.75-3.75,0-2.62,2.08-4.16,4.54-4.16a4.11,4.11,0,0,1,4.43,4Z"/><path class="cls-1" d="M71,71H11V11H71ZM13,69.1H69.1V13H13Z"/></g></svg>